HIERARCHY
ROOT Hips
{
  OFFSET 352.181 89.6817 215.948
  CHANNELS 6 Xposition Yposition Zposition Zrotation Xrotation Yrotation
  JOINT RightUpLeg
  {
    OFFSET -9.28908 -1.54242 -0.003762
    CHANNELS 3 Zrotation Xrotation Yrotation
    JOINT RightLeg
    {
      OFFSET 0.175992 -41.9066 0.16442
      CHANNELS 3 Zrotation Xrotation Yrotation
      JOINT RightFoot
      {
        OFFSET -0.850518 -41.676 1.19357
        CHANNELS 3 Zrotation Xrotation Yrotation
        End Site
        {
          OFFSET 0 -7.69 17.5
        }
      }
    }
  }
  JOINT LeftUpLeg
  {
    OFFSET 9.35911 -1.62184 0.0934226
    CHANNELS 3 Zrotation Xrotation Yrotation
    JOINT LeftLeg
    {
      OFFSET 0.11037 -41.8771 -4.76722e-05
      CHANNELS 3 Zrotation Xrotation Yrotation
      JOINT LeftFoot
      {
        OFFSET 0.784832 -42.2153 -2.4698
        CHANNELS 3 Zrotation Xrotation Yrotation
        End Site
        {
          OFFSET 0 -7.69 17.5
        }
      }
    }
  }
  JOINT Spine
  {
    OFFSET -0.0264112 14.3118 0.141242
    CHANNELS 3 Zrotation Xrotation Yrotation
    JOINT Spine1
    {
      OFFSET -0.0608006 9.71827 0.0702426
      CHANNELS 3 Zrotation Xrotation Yrotation
      JOINT Spine2
      {
        OFFSET 0.040197 10.1251 -0.0199022
        CHANNELS 3 Zrotation Xrotation Yrotation
        JOINT Spine3
        {
          OFFSET -0.018884 9.71791 0.0127475
          CHANNELS 3 Zrotation Xrotation Yrotation
          JOINT Neck
          {
            OFFSET -0.169577 10.3664 -0.0885607
            CHANNELS 3 Zrotation Xrotation Yrotation
            JOINT Head
            {
              OFFSET -0.26372 9.48406 0.127016
              CHANNELS 3 Zrotation Xrotation Yrotation
              End Site
              {
                OFFSET 0 15.95 0
              }
            }
          }
          JOINT RightShoulder
          {
            OFFSET -3.21308 6.8767 -0.0450237
            CHANNELS 3 Zrotation Xrotation Yrotation
            JOINT RightArm
            {
              OFFSET -12.7762 -0.0188046 -0.0629949
              CHANNELS 3 Zrotation Xrotation Yrotation
              JOINT RightForeArm
              {
                OFFSET -26.5383 -0.000218244 -0.103623
                CHANNELS 3 Zrotation Xrotation Yrotation
                JOINT RightHand
                {
                  OFFSET -25.8669 -0.047899 -0.0603739
                  CHANNELS 3 Zrotation Xrotation Yrotation
                  JOINT RightHandThumb1
                  {
                    OFFSET -2.48905 0.190105 3.12053
                    CHANNELS 3 Zrotation Xrotation Yrotation
                    JOINT RightHandThumb2
                    {
                      OFFSET -3.68274 0 0
                      CHANNELS 3 Zrotation Xrotation Yrotation
                      JOINT RightHandThumb3
                      {
                        OFFSET -2.55832 0 0
                        CHANNELS 3 Zrotation Xrotation Yrotation
                        End Site
                        {
                          OFFSET -2.194 0 0
                        }
                      }
                    }
                  }
                  JOINT RightInHandIndex
                  {
                    OFFSET -3.22368 0.508421 1.97842
                    CHANNELS 3 Zrotation Xrotation Yrotation
                    JOINT RightHandIndex1
                    {
                      OFFSET -5.21684 -0.091368 0.999158
                      CHANNELS 3 Zrotation Xrotation Yrotation
                      JOINT RightHandIndex2
                      {
                        OFFSET -3.61937 0 0
                        CHANNELS 3 Zrotation Xrotation Yrotation
                        JOINT RightHandIndex3
                        {
                          OFFSET -2.0521 0 0
                          CHANNELS 3 Zrotation Xrotation Yrotation
                          End Site
                          {
                            OFFSET -1.805 0 0
                          }
                        }
                      }
                    }
                  }
                  JOINT RightInHandMiddle
                  {
                    OFFSET -3.38211 0.517263 0.756737
                    CHANNELS 3 Zrotation Xrotation Yrotation
                    JOINT RightHandMiddle1
                    {
                      OFFSET -5.17411 -0.084 0.313895
                      CHANNELS 3 Zrotation Xrotation Yrotation
                      JOINT RightHandMiddle2
                      {
                        OFFSET -3.94947 0 0
                        CHANNELS 3 Zrotation Xrotation Yrotation
                        JOINT RightHandMiddle3
                        {
                          OFFSET -2.47579 0 0
                          CHANNELS 3 Zrotation Xrotation Yrotation
                          End Site
                          {
                            OFFSET -1.975 0 0
                          }
                        }
                      }
                    }
                  }
                  JOINT RightInHandRing
                  {
                    OFFSET -3.36516 0.537895 -0.128947
                    CHANNELS 3 Zrotation Xrotation Yrotation
                    JOINT RightHandRing1
                    {
                      OFFSET -4.63474 -0.022105 -0.478947
                      CHANNELS 3 Zrotation Xrotation Yrotation
                      JOINT RightHandRing2
                      {
                        OFFSET -3.44238 0 0
                        CHANNELS 3 Zrotation Xrotation Yrotation
                        JOINT RightHandRing3
                        {
                          OFFSET -2.3881 0 0
                          CHANNELS 3 Zrotation Xrotation Yrotation
                          End Site
                          {
                            OFFSET -1.857 0 0
                          }
                        }
                      }
                    }
                  }
                  JOINT RightInHandPinky
                  {
                    OFFSET -3.16105 0.469368 -1.20179
                    CHANNELS 3 Zrotation Xrotation Yrotation
                    JOINT RightHandPinky1
                    {
                      OFFSET -4.14105 -0.022105 -1.09053
                      CHANNELS 3 Zrotation Xrotation Yrotation
                      JOINT RightHandPinky2
                      {
                        OFFSET -2.75653 0 0
                        CHANNELS 3 Zrotation Xrotation Yrotation
                        JOINT RightHandPinky3
                        {
                          OFFSET -1.74189 0 0
                          CHANNELS 3 Zrotation Xrotation Yrotation
                          End Site
                          {
                            OFFSET -1.645 0 0
                          }
                        }
                      }
                    }
                  }
                }
              }
            }
          }
          JOINT LeftShoulder
          {
            OFFSET 3.21013 6.92813 0.031381
            CHANNELS 3 Zrotation Xrotation Yrotation
            JOINT LeftArm
            {
              OFFSET 12.8361 0.00272676 -0.00293476
              CHANNELS 3 Zrotation Xrotation Yrotation
              JOINT LeftForeArm
              {
                OFFSET 26.5005 -0.02636 0.00399578
                CHANNELS 3 Zrotation Xrotation Yrotation
                JOINT LeftHand
                {
                  OFFSET 25.9821 -0.0367196 0.00246136
                  CHANNELS 3 Zrotation Xrotation Yrotation
                  JOINT LeftHandThumb1
                  {
                    OFFSET 2.48905 0.190105 3.12053
                    CHANNELS 3 Zrotation Xrotation Yrotation
                    JOINT LeftHandThumb2
                    {
                      OFFSET 3.68274 0 0
                      CHANNELS 3 Zrotation Xrotation Yrotation
                      JOINT LeftHandThumb3
                      {
                        OFFSET 2.55832 0 0
                        CHANNELS 3 Zrotation Xrotation Yrotation
                        End Site
                        {
                          OFFSET 2.194 0 0
                        }
                      }
                    }
                  }
                  JOINT LeftInHandIndex
                  {
                    OFFSET 3.22368 0.508421 1.97842
                    CHANNELS 3 Zrotation Xrotation Yrotation
                    JOINT LeftHandIndex1
                    {
                      OFFSET 5.21684 -0.091368 0.999158
                      CHANNELS 3 Zrotation Xrotation Yrotation
                      JOINT LeftHandIndex2
                      {
                        OFFSET 3.61937 0 0
                        CHANNELS 3 Zrotation Xrotation Yrotation
                        JOINT LeftHandIndex3
                        {
                          OFFSET 2.0521 0 0
                          CHANNELS 3 Zrotation Xrotation Yrotation
                          End Site
                          {
                            OFFSET 1.805 0 0
                          }
                        }
                      }
                    }
                  }
                  JOINT LeftInHandMiddle
                  {
                    OFFSET 3.38211 0.517263 0.756737
                    CHANNELS 3 Zrotation Xrotation Yrotation
                    JOINT LeftHandMiddle1
                    {
                      OFFSET 5.17411 -0.084 0.313895
                      CHANNELS 3 Zrotation Xrotation Yrotation
                      JOINT LeftHandMiddle2
                      {
                        OFFSET 3.94947 0 0
                        CHANNELS 3 Zrotation Xrotation Yrotation
                        JOINT LeftHandMiddle3
                        {
                          OFFSET 2.47579 0 0
                          CHANNELS 3 Zrotation Xrotation Yrotation
                          End Site
                          {
                            OFFSET 1.975 0 0
                          }
                        }
                      }
                    }
                  }
                  JOINT LeftInHandRing
                  {
                    OFFSET 3.36516 0.537895 -0.128947
                    CHANNELS 3 Zrotation Xrotation Yrotation
                    JOINT LeftHandRing1
                    {
                      OFFSET 4.63474 -0.022105 -0.478947
                      CHANNELS 3 Zrotation Xrotation Yrotation
                      JOINT LeftHandRing2
                      {
                        OFFSET 3.44238 0 0
                        CHANNELS 3 Zrotation Xrotation Yrotation
                        JOINT LeftHandRing3
                        {
                          OFFSET 2.3881 0 0
                          CHANNELS 3 Zrotation Xrotation Yrotation
                          End Site
                          {
                            OFFSET 1.857 0 0
                          }
                        }
                      }
                    }
                  }
                  JOINT LeftInHandPinky
                  {
                    OFFSET 3.16105 0.469368 -1.20179
                    CHANNELS 3 Zrotation Xrotation Yrotation
                    JOINT LeftHandPinky1
                    {
                      OFFSET 4.14105 -0.022105 -1.09053
                      CHANNELS 3 Zrotation Xrotation Yrotation
                      JOINT LeftHandPinky2
                      {
                        OFFSET 2.75653 0 0
                        CHANNELS 3 Zrotation Xrotation Yrotation
                        JOINT LeftHandPinky3
                        {
                          OFFSET 1.74189 0 0
                          CHANNELS 3 Zrotation Xrotation Yrotation
                          End Site
                          {
                            OFFSET 1.645 0 0
                          }
                        }
                      }
                    }
                  }
                }
              }
            }
          }
        }
      }
    }
  }
}
MOTION
Frames: 2
Frame Time: 0.00833333
1.110408792074167650e+03 8.866982276700151999e+01 2.062740872889578441e+02 2.213063420653886837e+01 1.081991680356560970e+01 -5.349542206684155587e+01 -3.113619253859213387e+01 -4.799538948629707846e+01 -2.776163297106294792e+01 1.046868050200856715e+00 2.582004048868524393e+01 -1.958872256860911776e+01 1.195592427956672132e+01 4.353202444683496708e+00 2.374890493227439592e+01 1.401837744727812307e+00 -4.503364380659943578e+01 -1.367152476226840463e+01 4.456522296292041219e+00 2.733303420558421948e+01 3.920653240702589581e+00 -1.378363551786289953e+01 -8.252676960535595185e+00 -2.104079248436384475e+01 -6.568384778124708667e+00 1.493622915448616162e+01 2.157791513286344909e+01 -1.322969354919456553e+00 3.791251531253164497e+00 5.311129262083213121e+00 -2.252140643963426836e+00 6.088830877510930328e+00 8.594681804899948929e+00 -2.373548652315348451e-01 -3.519535552070569562e-01 -1.220479324584636371e+00 -3.425827972791321840e-02 2.515025340850196578e-02 -5.207214047371643062e+00 -3.551274203121192574e+00 -6.745607244861297147e+00 -2.104120081642939510e+01 -2.400630912136220818e+00 -1.071552179365109581e+01 2.439381169464035537e+01 8.405497367366473327e+01 -4.911829954292080025e+00 5.881639429572119582e+01 5.747828324001338274e+01 -3.231749048545024294e+01 4.706579736999820796e+01 3.218244310044668310e+01 -1.470624121600328493e+01 -2.103950677326190544e+01 2.818400000000000105e+01 1.072940000000000005e+01 1.915919999999999845e+01 -1.095482068705981588e-17 3.402461846315543233e-15 -1.000000000000000000e+01 -4.824083726936332660e-15 -1.799003896856843216e-15 -1.000000000000000000e+01 2.312173701092654380e-16 -1.541562460472728149e-15 -1.353890231109248828e-15 1.998179999999999978e+01 8.718970000000000331e-01 2.396399999999999864e+00 2.400000000000000000e+01 -4.982450134452179795e-15 -1.272314741032969470e-14 2.000000000000000000e+01 -7.930611491289645416e-16 -3.452095257374482658e-15 2.312173701092654380e-16 -1.541562460472728149e-15 -1.353890231109248828e-15 2.000000000000000000e+01 -2.616334734955019143e-15 1.190212220844102923e-15 2.400000000000000000e+01 -6.462411571569287053e-15 -1.799709748777291882e-14 2.000000000000000000e+01 1.710719755297627125e-15 -5.734464971637691405e-15 2.312173701092654380e-16 -1.541562460472728149e-15 -1.353890231109248828e-15 1.997479999999999833e+01 -1.025649999999999951e+00 -2.819380000000000219e+00 2.400000000000000000e+01 -4.609055459949804016e-15 -1.948327572478634700e-14 2.000000000000000000e+01 -1.082425832122667555e-14 -4.797757967056967094e-15 2.312173701092654380e-16 -1.541562460472728149e-15 -1.353890231109248828e-15 1.978150000000000119e+01 -3.009479999999999933e+00 -8.305149999999999366e+00 2.400000000000000000e+01 1.287918177745810009e-15 -1.999186110062399648e-14 2.000000000000000000e+01 -1.047941690870373189e-14 -5.154377146559793045e-16 1.279816015263082818e+01 -1.668334771770473068e+01 -3.106355245390044573e+01 -4.203708827109961277e+01 3.224245915305999688e+01 -6.806603370253489516e+01 -2.375093026354708314e+01 -3.348506704847422100e+01 -2.963338898984699910e+01 -1.996250169164429522e+01 -2.013696512011361506e+01 5.806848914414757701e+00 -2.818400000000000105e+01 1.072940000000000005e+01 -1.915919999999999845e+01 -4.152943515779392355e-16 4.119139596341252262e-15 1.000000000000000000e+01 -1.910537587996447246e-16 -2.378960722422582941e-15 1.000000000000000000e+01 -5.374806886808144958e-15 5.257557905205612813e-16 -3.365514207909843380e-15 -1.998179999999999978e+01 8.718970000000000331e-01 -2.396399999999999864e+00 -2.400000000000000000e+01 5.399913764711769878e-15 -6.327247061034508397e-16 -2.000000000000000000e+01 -4.913180338528586498e-15 -1.109644475514639212e-14 -5.374806886808144958e-15 5.257557905205612813e-16 -3.365514207909843380e-15 -2.000000000000000000e+01 -1.024524639272578544e-14 -2.668332835382187327e-15 -2.400000000000000000e+01 -1.244119046400760552e-15 -4.740551709512861604e-15 -2.000000000000000000e+01 -2.589128465150907324e-15 -3.233726258430872901e-15 -5.374806886808144958e-15 5.257557905205612813e-16 -3.365514207909843380e-15 -1.997479999999999833e+01 -1.025649999999999951e+00 2.819380000000000219e+00 -2.400000000000000000e+01 3.730232124244793759e-15 -2.402156807832183560e-15 -2.000000000000000000e+01 5.411007638117845694e-15 -9.595731294575790040e-16 -5.374806886808144958e-15 5.257557905205612813e-16 -3.365514207909843380e-15 -1.978150000000000119e+01 -3.009479999999999933e+00 8.305149999999999366e+00 -2.400000000000000000e+01 7.216165330388325384e-16 -5.421882213703390404e-15 -2.000000000000000000e+01 -2.922823839046395880e-15 -2.662538225660810238e-15
1.110409590866483313e+03 8.865513649130352292e+01 2.062882959570160324e+02 2.216760809003012511e+01 1.075362264515970168e+01 -5.392339726163338298e+01 -3.079696755119881146e+01 -4.807537102921070016e+01 -2.744467947282464593e+01 9.717485059109438605e-01 2.575940304167541228e+01 -1.948630031428112730e+01 1.193560585436947719e+01 4.455197543320945641e+00 2.391869041763872161e+01 1.623242303984344659e+00 -4.494840483970313016e+01 -1.343091218645189855e+01 4.273237993478873342e+00 2.744145868913113162e+01 4.128675935849694056e+00 -1.374362127503352049e+01 -8.363457438503234087e+00 -2.094661903671575232e+01 -6.569609020794918486e+00 1.485788551766628096e+01 2.131789994860538684e+01 -1.325369510471182011e+00 3.768754932303544525e+00 5.246169783985461521e+00 -2.255747017235731455e+00 6.052107828706004611e+00 8.490267946845118985e+00 -2.432464741771649397e-01 -3.549331418039978758e-01 -1.190578785620455715e+00 -4.564720118201395782e-02 -1.093463291992780029e-02 -4.905164149144803254e+00 -3.653988556969606449e+00 -6.709816620047533320e+00 -2.065564912633151806e+01 -2.325080974800682654e+00 -1.059873846724922331e+01 2.421905305983924706e+01 8.381127812350543138e+01 -5.400360773004888593e+00 5.833107167364008916e+01 5.768224357431697058e+01 -3.200076214840228772e+01 4.781839255259437493e+01 3.205958106030422528e+01 -1.469893568400296147e+01 -2.085322523366463088e+01 2.818400000000000105e+01 1.072940000000000005e+01 1.915919999999999845e+01 1.956749305603651572e-16 3.383683123132350528e-15 -1.000000000000000000e+01 -4.820064446829089637e-15 -1.798831221616659848e-15 -1.000000000000000000e+01 2.188110154408027677e-16 -1.532720997353077618e-15 -1.338475547039259499e-15 1.998179999999999978e+01 8.718970000000000331e-01 2.396399999999999864e+00 2.400000000000000000e+01 -4.916289081959346909e-15 -1.255621520658292318e-14 2.000000000000000000e+01 -8.024575413844884352e-16 -3.425093921478135903e-15 2.188110154408027677e-16 -1.532720997353077618e-15 -1.338475547039259499e-15 2.000000000000000000e+01 -2.562787689660421807e-15 1.203030574198907847e-15 2.400000000000000000e+01 -6.435702943806671467e-15 -1.788486350407854681e-14 2.000000000000000000e+01 1.705697923211323833e-15 -5.690788045620988031e-15 2.188110154408027677e-16 -1.532720997353077618e-15 -1.338475547039259499e-15 1.997479999999999833e+01 -1.025649999999999951e+00 -2.819380000000000219e+00 2.400000000000000000e+01 -4.601519489069138579e-15 -1.938382671546947150e-14 2.000000000000000000e+01 -1.082040964547749702e-14 -4.740093267303482009e-15 2.188110154408027677e-16 -1.532720997353077618e-15 -1.338475547039259499e-15 1.978150000000000119e+01 -3.009479999999999933e+00 -8.305149999999999366e+00 2.400000000000000000e+01 1.281604748977680928e-15 -1.990622963226515660e-14 2.000000000000000000e+01 -1.049010960036500165e-14 -4.737475411513187326e-16 1.276350588608676340e+01 -1.671451243308470325e+01 -3.126180591670952325e+01 -4.171823976831436198e+01 3.225426958041500569e+01 -6.847845518161020095e+01 -2.309822850731806199e+01 -3.312139833125054622e+01 -2.931588619949012298e+01 -2.003213185370050553e+01 -2.008647221958901241e+01 5.750920032553691108e+00 -2.818400000000000105e+01 1.072940000000000005e+01 -1.915919999999999845e+01 -4.264803591341002346e-16 4.113422996791775219e-15 1.000000000000000000e+01 -1.636871638096118730e-16 -2.389876010310427833e-15 1.000000000000000000e+01 -5.362188342914527050e-15 5.384277709967916846e-16 -3.365512000769609710e-15 -1.998179999999999978e+01 8.718970000000000331e-01 -2.396399999999999864e+00 -2.400000000000000000e+01 5.401423533148766182e-15 -6.148109817281018189e-16 -2.000000000000000000e+01 -4.899613288709661157e-15 -1.108645148709510950e-14 -5.362188342914527050e-15 5.384277709967916846e-16 -3.365512000769609710e-15 -2.000000000000000000e+01 -1.024049245661105871e-14 -2.667164835037726930e-15 -2.400000000000000000e+01 -1.259310796506750165e-15 -4.718521787452946890e-15 -2.000000000000000000e+01 -2.571726340084401756e-15 -3.227006523890563561e-15 -5.362188342914527050e-15 5.384277709967916846e-16 -3.365512000769609710e-15 -1.997479999999999833e+01 -1.025649999999999951e+00 2.819380000000000219e+00 -2.400000000000000000e+01 3.743593432479948269e-15 -2.349706642532069057e-15 -2.000000000000000000e+01 5.405065103314418994e-15 -9.559860570323095137e-16 -5.362188342914527050e-15 5.384277709967916846e-16 -3.365512000769609710e-15 -1.978150000000000119e+01 -3.009479999999999933e+00 8.305149999999999366e+00 -2.400000000000000000e+01 6.772020241396727042e-16 -5.412627638087732719e-15 -2.000000000000000000e+01 -2.927712749118501874e-15 -2.678707576575533253e-15
